<svg class="" xmlns="http://www.w3.org/2000/svg" width="14" height="15" viewBox="0 0 14 15" fill="none"><path d="M9.61197 10.1774C9.57871 10.1774 9.57871 10.1441 9.54545 10.1441C9.54545 10.1441 9.27938 10.0111 9.04656 9.67849C10.5432 9.41242 11.4412 9.0133 11.4745 8.98004C11.6075 8.91353 11.6741 8.81375 11.7073 8.68071C11.7406 8.54767 11.6741 8.41463 11.5743 8.31486C10.4435 7.2173 10.2772 4.65632 10.2439 4.12417C10.2439 3.29268 10.0776 1.96231 9.27938 1.03104C8.68071 0.332594 7.81596 0 6.75166 0C5.68736 0 4.82262 0.332594 4.22395 1.03104C3.42572 1.92905 3.25942 3.1929 3.25942 4.02439C3.25942 4.05765 3.22616 7.08426 1.92905 8.31486C1.82927 8.41463 1.79601 8.54767 1.79601 8.68071C1.82927 8.81375 1.89579 8.91353 2.02883 8.98004C2.06208 9.0133 2.92683 9.44568 4.49002 9.67849C4.29047 9.97783 4.02439 10.1109 4.02439 10.1109C4.02439 10.1109 3.99113 10.1109 3.99113 10.1441C0.133038 12.4723 0 14.4013 0 14.6009C0 14.8337 0.166297 15 0.399113 15C0.631929 15 0.831486 14.8337 0.831486 14.6009C0.831486 14.6009 0.931264 13.0044 4.25721 10.9756L5.25499 14.7007C5.32151 14.9002 5.4878 15 5.6541 15C5.68736 15 5.72062 15 5.75388 15C5.9867 14.9335 6.11973 14.7007 6.05322 14.5011L5.62084 12.9379C5.95344 13.1042 6.31929 13.2373 6.78492 13.2373C7.25055 13.2373 7.61641 13.1375 7.949 12.9712L7.54989 14.5011C7.48337 14.7339 7.61641 14.9667 7.84922 15C7.88248 15 7.91574 15 7.949 15C8.1153 15 8.31486 14.867 8.34812 14.7007L9.3459 10.9756C12.6386 12.9712 12.7716 14.5344 12.7716 14.6009C12.7716 14.8337 12.9712 15 13.1707 15C13.4035 15 13.5698 14.8004 13.5698 14.6009C13.6364 14.4013 13.5366 12.5055 9.61197 10.1774ZM4.92239 1.59645C5.35477 1.09756 5.9867 0.831486 6.81818 0.831486C7.64967 0.831486 8.2816 1.0643 8.71397 1.59645C9.21286 2.1286 9.37916 2.89357 9.44568 3.55876C8.51441 3.1929 8.18182 1.66297 8.18182 1.62971C8.14856 1.43016 7.98226 1.29712 7.78271 1.29712C7.58315 1.29712 7.41685 1.3969 7.35033 1.59645C6.78492 3.5255 4.95565 4.15743 4.09091 4.35698C4.12417 3.6918 4.22395 2.42794 4.92239 1.59645ZM9.47894 4.4235C9.47894 4.62306 9.44568 4.7561 9.44568 4.78936C9.44568 4.82262 9.44568 4.82262 9.44568 4.85588C9.44568 5.75388 9.0133 6.41907 8.61419 7.051C8.44789 7.31707 8.24834 7.61641 8.14856 7.88248C8.04878 7.98226 7.58315 8.51441 6.81818 8.51441C5.9867 8.51441 5.52106 7.88248 5.45455 7.81596C5.32151 7.54989 5.18847 7.31707 5.02217 7.051C4.65632 6.48559 4.32373 5.92018 4.22395 5.18847C5.02217 5.02217 6.78492 4.49002 7.74945 2.86031C8.04878 3.49224 8.58093 4.25721 9.47894 4.4235ZM4.85588 8.91353C4.02439 8.78049 3.39246 8.61419 2.99335 8.44789C3.39246 7.91574 3.62528 7.25056 3.79157 6.58537C3.95787 6.91796 4.12417 7.2173 4.29047 7.48337C4.5898 7.949 4.85588 8.34812 4.85588 8.74723C4.85588 8.81375 4.85588 8.84701 4.85588 8.91353ZM8.34812 11.5743L8.31486 11.6075C8.31486 11.6075 7.78271 12.3725 6.85144 12.3725C5.92018 12.3725 5.35477 11.5743 5.35477 11.541L5.32151 11.5078L5.02217 10.4435C5.32151 10.1441 5.62084 9.67849 5.68736 9.04656C5.9867 9.21286 6.38581 9.3459 6.85144 9.3459C7.31707 9.3459 7.68293 9.21286 8.01552 9.07982C8.08204 9.71175 8.41463 10.1774 8.68071 10.4767L8.34812 11.5743ZM8.78049 8.74723C8.78049 8.38138 9.04656 7.98226 9.3459 7.48337C9.51219 7.2173 9.71175 6.91796 9.84479 6.58537C10.0111 7.2173 10.2772 7.88248 10.643 8.41463C10.2439 8.54767 9.61197 8.74723 8.78049 8.88027C8.78049 8.84701 8.78049 8.78049 8.78049 8.74723Z" fill="#302782"></path></svg>