<svg class="" xmlns="http://www.w3.org/2000/svg" width="15" height="15" viewBox="0 0 15 15" fill="none"><path d="M12.8978 9.77197L9.63216 8.58106V7.67477C9.86192 7.32227 10.0166 6.92623 10.0866 6.51132C10.2809 6.39593 10.449 6.24114 10.58 6.05691C10.711 5.87268 10.802 5.66307 10.8472 5.44157C10.8923 5.22006 10.8906 4.99156 10.8422 4.77075C10.7937 4.54995 10.6996 4.34172 10.5659 4.15945C10.6084 3.93978 10.6302 3.71659 10.6308 3.49284C10.6455 2.58314 10.299 1.7047 9.66727 1.05C9.0355 0.395298 8.16997 0.0177207 7.26032 0C6.35023 0.0177183 5.48432 0.39564 4.85247 1.05088C4.22063 1.70613 3.87444 2.58521 3.88981 3.49534C3.89046 3.71909 3.91219 3.94228 3.95473 4.16195C3.821 4.34421 3.7269 4.55244 3.67846 4.77325C3.63002 4.99406 3.62832 5.22256 3.67346 5.44406C3.71861 5.66557 3.80961 5.87517 3.9406 6.05941C4.0716 6.24364 4.2397 6.39843 4.43409 6.51381C4.50405 6.92872 4.65872 7.32477 4.88848 7.67726V8.57607L1.58539 9.77447C1.12147 9.94405 0.720734 10.2518 0.437239 10.6563C0.153744 11.0608 0.00113484 11.5425 0 12.0365V15H14.4807V12.0315C14.4792 11.5382 14.3268 11.0573 14.0438 10.6534C13.7608 10.2494 13.3609 9.94181 12.8978 9.77197ZM9.75699 9.42493L9.25766 9.92427L8.81575 9.49734L9.28762 9.24767L9.75699 9.42493ZM4.38915 5.11818C4.39183 4.89369 4.4813 4.67895 4.63881 4.51897L4.76365 4.36917L4.71621 4.17194C4.61927 3.78637 4.6065 3.38445 4.67876 2.99351C4.78862 2.99351 4.89847 2.99351 5.01332 2.99351C6.51132 2.99351 7.75965 2.36934 8.08921 1.52796C8.31392 2.08971 8.94807 2.55659 9.79194 2.80126C9.9046 3.24699 9.9046 3.71373 9.79194 4.15945L9.75699 4.36917L9.8968 4.51648C9.99447 4.61857 10.0658 4.74288 10.1048 4.8787C10.1437 5.01451 10.149 5.15776 10.1203 5.29608C10.0915 5.43441 10.0296 5.56368 9.93976 5.67274C9.84994 5.78179 9.73495 5.86738 9.60469 5.9221L9.39997 6.00949L9.3775 6.23169C9.33755 6.632 9.19383 7.01495 8.96055 7.34271L8.89065 7.44008V8.61351L8.00932 9.08539C7.95644 9.11243 7.91074 9.15166 7.87602 9.19985C7.84129 9.24804 7.81852 9.30379 7.80959 9.36252H6.71105C6.70212 9.30379 6.67935 9.24804 6.64462 9.19985C6.60989 9.15166 6.5642 9.11243 6.51132 9.08539L5.63748 8.61351V7.44008L5.56758 7.34271C5.3343 7.01495 5.19058 6.632 5.15063 6.23169L5.12816 6.00949L4.92344 5.9221C4.76526 5.8554 4.63023 5.74358 4.53521 5.60061C4.44019 5.45764 4.38939 5.28984 4.38915 5.11818ZM7.26032 11.1476L6.71854 10.7557L6.92577 10.1115H7.59487L7.8021 10.7482L7.26032 11.1476ZM7.07057 11.994H7.44008L7.83455 14.241H6.68359L7.07057 11.994ZM5.23302 9.24767L5.70989 9.49734L5.26298 9.92926L4.76365 9.42993L5.23302 9.24767ZM0.739015 12.0365C0.739913 11.6961 0.845257 11.3641 1.04082 11.0855C1.23638 10.8069 1.51273 10.5951 1.83256 10.4785L3.9722 9.70206L4.99085 10.7207C5.06085 10.7893 5.15497 10.8278 5.253 10.8278C5.35102 10.8278 5.44514 10.7893 5.51515 10.7207L6.12433 10.1315L5.91461 10.7781C5.88988 10.8533 5.8896 10.9344 5.91382 11.0098C5.93804 11.0851 5.98552 11.1509 6.04943 11.1976L6.41145 11.4597C6.39655 11.4889 6.38564 11.52 6.37899 11.5521L5.9246 14.251H0.749001L0.739015 12.0365ZM13.7217 14.2535H8.59604L8.12417 11.5571C8.11693 11.5276 8.10603 11.499 8.09171 11.4722L8.46122 11.2026C8.52513 11.1559 8.57261 11.0901 8.59683 11.0148C8.62105 10.9394 8.62078 10.8583 8.59604 10.7831L8.38632 10.1365L9.00799 10.7257C9.07799 10.7943 9.17211 10.8328 9.27014 10.8328C9.36817 10.8328 9.46229 10.7943 9.53229 10.7257L10.5434 9.71455L12.6506 10.4835C12.9695 10.6009 13.2448 10.8131 13.4394 11.0916C13.634 11.3702 13.7387 11.7016 13.7392 12.0414L13.7217 14.2535Z" fill="#302782"></path><path d="M12.2546 12.1914H9.48828V12.9404H12.2546V12.1914Z" fill="#302782"></path></svg>