<svg xmlns="http://www.w3.org/2000/svg" width="165" height="42" fill="none" class="brxe-icon"><path fill="#2A2D65" d="M3.465 20.095H.199v-8.193c0-.894.161-1.662.495-2.315a4.97 4.97 0 0 1 1.299-1.604 5.314 5.314 0 0 1 1.886-.951 8.133 8.133 0 0 1 2.265-.31c.794 0 1.552.104 2.265.31a5.515 5.515 0 0 1 1.886.951c.54.424.978.963 1.3 1.604.333.642.494 1.41.494 2.315v8.193H8.823v-7.987c0-.848-.241-1.466-.713-1.845-.471-.378-1.126-.573-1.966-.573-.84 0-1.46.184-1.943.539-.483.367-.725.951-.725 1.753v.79c.115-.045.23-.08.368-.114.138-.034.242-.046.334-.046h2.116v2.682H4.408c-.38 0-.621.08-.748.229-.126.149-.184.378-.184.687v3.896l-.011-.011ZM15.826 12.796l-1.449-1.96c.62-1.374 1.506-2.406 2.68-3.082 1.16-.676 2.54-1.02 4.127-1.02 2.093 0 3.634.482 4.623 1.456.989.974 1.483 2.303 1.483 4.01v2.624c0 .79.161 1.398.483 1.833.322.436.828.654 1.54.654.576 0 1.082-.23 1.542-.688.448-.458.678-1.054.678-1.799V6.86h3.3v13.235h-3.3v-1.249c-.241.332-.61.642-1.104.928a3.158 3.158 0 0 1-1.667.447c-1.391 0-2.53-.435-3.415-1.295-.897-.86-1.334-2.142-1.334-3.85v-2.681c0-1.856-.943-2.785-2.84-2.785-.219 0-.472 0-.748.035a4.193 4.193 0 0 0-.828.149c-.276.08-.54.183-.805.332a2.194 2.194 0 0 0-.69.573l1.058 1.57v4.285c0 .172.023.321.07.424.045.115.149.16.333.16h1.483v2.946h-1.748c-1.253 0-2.138-.31-2.656-.94-.517-.619-.782-1.478-.782-2.567v-3.804l-.034.023ZM40.295 14.593c.023.344.058.63.115.837.058.206.127.31.219.31h3.668v2.875h-4.036c-.334 0-.656-.068-.989-.194-.333-.127-.632-.344-.92-.654-.287-.309-.517-.721-.69-1.249-.172-.527-.276-1.168-.299-1.936h2.944l-.012.011Zm0-6.382c.023.344.058.63.115.836.058.207.127.31.219.31h3.668v2.887h-4.036a2.76 2.76 0 0 1-.989-.194c-.333-.127-.632-.344-.92-.654-.287-.309-.517-.722-.69-1.249-.172-.527-.276-1.168-.299-1.936h2.944-.012ZM45.62 9.851c.62-.985 1.379-1.741 2.299-2.291a5.54 5.54 0 0 1 2.92-.814c1.76 0 3.117.493 4.06 1.49.943.997 1.425 2.314 1.425 3.941v2.59c0 .722-.103 1.41-.31 2.085a4.723 4.723 0 0 1-.989 1.754 4.642 4.642 0 0 1-1.713 1.191c-.69.298-1.518.447-2.46.447-.771 0-1.553-.172-2.358-.527-.805-.344-1.541-.87-2.196-1.57l2.31-1.96c.357.333.737.585 1.14.792.402.194.77.297 1.103.297.77 0 1.334-.24 1.679-.733.356-.493.529-1.088.529-1.787V12.2c0-.653-.173-1.226-.506-1.718-.345-.493-.908-.734-1.702-.734-.402 0-.805.138-1.219.413-.414.275-.782.664-1.092 1.157l-2.91-1.444-.01-.023ZM55.991 2.184h-10.67v2.452h10.67V2.184ZM67.087 20.094v-7.986c0-.917-.23-1.547-.678-1.902a2.32 2.32 0 0 0-1.472-.528c-.529 0-1.046.218-1.552.642-.506.424-.76 1.077-.76 1.948v7.826h-3.334V6.86h3.243v1.375a5.01 5.01 0 0 1 1.506-1.146c.54-.264 1.15-.39 1.84-.39.69 0 1.334.126 1.897.378a4.215 4.215 0 0 1 1.438 1.043c.402.447.7.974.908 1.57.207.607.31 1.249.31 1.948v8.445H67.1l-.012.011ZM79.082 14.33c-.943.07-1.633.207-2.047.413-.414.206-.633.584-.633 1.134 0 .367.23.71.69.997.46.298 1.104.447 1.92.447 1.035 0 1.725-.252 2.07-.768.345-.515.506-1.18.506-2.016V6.87h3.335v7.666c0 .893-.103 1.696-.299 2.406a4.234 4.234 0 0 1-.989 1.799c-.46.493-1.07.87-1.828 1.146-.76.275-1.69.412-2.794.412-1.3 0-2.335-.172-3.105-.527-.77-.344-1.357-.768-1.77-1.26-.403-.493-.68-.986-.806-1.49-.138-.504-.195-.905-.195-1.214 0-.505.08-.974.253-1.41.16-.435.448-.836.84-1.214a3.662 3.662 0 0 1-1.093-2.395c0-.55.08-1.055.253-1.524.16-.47.414-.883.759-1.25a3.722 3.722 0 0 1 1.253-.847c.494-.206 1.07-.31 1.736-.31h1.955v2.91H77.38c-.334 0-.564.07-.713.219-.138.137-.23.343-.253.607 0 .31.092.538.264.699.173.16.391.286.656.378.264.092.552.137.874.16.322.023.61.035.874.035v2.463ZM86.475 9.198a6.296 6.296 0 0 1 2.012-1.822 5.198 5.198 0 0 1 2.541-.642c1.587 0 2.771.39 3.565 1.18.793.791 1.196 1.926 1.196 3.404v8.777h-3.3v-8.708c0-.527-.104-.94-.311-1.25-.207-.309-.586-.458-1.138-.458-.725 0-1.38.355-1.944 1.077l-2.61-1.57-.011.012ZM102.365 20.096H99.1v-8.193c0-.894.16-1.661.494-2.314.334-.642.759-1.18 1.299-1.605a5.422 5.422 0 0 1 1.886-.95 8.134 8.134 0 0 1 2.265-.31c1.035 0 2.013.183 2.944.561l2.472-2.394 2.185 2.062-2.346 2.257c.219.367.391.78.518 1.227.115.446.184.928.184 1.455v8.193h-3.266v-7.987c0-.848-.241-1.467-.713-1.845-.471-.378-1.127-.573-1.966-.573s-1.46.184-1.955.539c-.483.367-.724.95-.724 1.753v.722c.115-.046.23-.069.368-.08.138 0 .241-.012.333-.012h2.15v2.681h-1.92c-.379 0-.621.08-.747.23-.127.149-.184.378-.184.687v3.896h-.012ZM112.576 9.198a6.3 6.3 0 0 1 2.012-1.822 5.202 5.202 0 0 1 2.541-.642c1.587 0 2.772.39 3.565 1.18.794.791 1.184 1.926 1.184 3.404v8.777h-3.3v-8.708c0-.527-.103-.94-.31-1.25-.207-.309-.587-.458-1.139-.458-.724 0-1.379.355-1.954 1.077l-2.611-1.57.012.012ZM132.195 14.733h-3.174c-.529 0-.931.138-1.207.413-.276.275-.414.584-.414.94 0 .39.115.733.345 1.03.23.299.655.448 1.276.448v2.681c-1.368 0-2.472-.344-3.335-1.054-.862-.7-1.288-1.73-1.288-3.082 0-.528.092-1.032.276-1.524.184-.493.472-.929.84-1.295.379-.378.851-.665 1.437-.883.587-.217 1.265-.332 2.035-.332h3.14v-.493c0-.722-.196-1.249-.575-1.57-.38-.332-1.024-.492-1.898-.492-.575 0-1.069.08-1.483.24-.414.16-.828.425-1.219.768l-2.047-1.994a8.77 8.77 0 0 1 1.104-.87c.368-.23.736-.413 1.104-.562.38-.137.782-.24 1.219-.298.437-.057.92-.08 1.449-.08 1.035 0 1.932.126 2.702.39l2.277-2.223 2.185 2.062-2.082 1.994c.391.653.598 1.467.598 2.418v8.708h-3.265V14.7v.034ZM142.509 10.173c-.15.195-.265.436-.311.722-.057.287-.08.596-.08.917v4.423c0 .31.057.538.161.699.115.16.345.24.69.24h1.288v2.91h-1.484c-1.345 0-2.345-.354-3.001-1.065-.667-.71-.989-1.65-.989-2.83v-4.618c0-1.249.345-2.269 1.035-3.082.69-.802 1.633-1.41 2.829-1.8l2.311 1.8L147.2 6.62c1.162.31 2.105.882 2.829 1.719.713.836 1.092 1.914 1.138 3.231v8.514h-3.3V11.8c0-.653-.126-1.203-.402-1.638l-1.323.95c-.437.333-.85.494-1.218.494s-.748-.15-1.127-.459l-1.288-.985v.011ZM164.172 16.004c0 .573-.115 1.112-.334 1.627a3.707 3.707 0 0 1-1.012 1.364c-.448.39-1.023.699-1.702.928-.678.23-1.471.344-2.38.344-1.23 0-2.277-.183-3.139-.561-.862-.367-1.69-.974-2.472-1.8l2.047-2.188c.552.561 1.08.974 1.598 1.226.517.252 1.15.378 1.897.378.817 0 1.38-.126 1.691-.39.31-.263.46-.561.46-.916s-.173-.619-.518-.802a4.686 4.686 0 0 0-1.069-.413l-1.024-.229a14.636 14.636 0 0 1-1.828-.527c-.54-.195-1-.447-1.391-.733a2.975 2.975 0 0 1-.874-1.066c-.196-.413-.299-.905-.299-1.478 0-1.112.402-2.063 1.219-2.853.816-.791 2.035-1.18 3.668-1.18.92 0 1.782.137 2.575.423.794.287 1.645.791 2.542 1.513l-2.151 1.96c-.552-.413-1.046-.688-1.506-.803a5.945 5.945 0 0 0-1.472-.183c-.529 0-.931.092-1.207.263-.276.172-.414.413-.414.722 0 .172.057.321.184.424.115.115.264.207.448.275.173.08.368.138.564.184.195.045.379.091.529.126l1.161.298c.575.126 1.115.298 1.621.492.506.195.955.447 1.334.768.38.32.69.699.909 1.169.218.458.333 1.008.333 1.638M157.502 4.317c0-.848.08-1.513.241-2.017.161-.493.391-.87.667-1.134.276-.264.575-.424.909-.505.333-.08.655-.114.989-.114h4.691v2.658h-4.496c-.138 0-.195.367-.195 1.112h-2.806ZM10.502 29.893c.31.413.552.883.724 1.387.173.515.265 1.088.265 1.719v8.422H9.547v-8.159c0-2.383-1.196-3.564-3.599-3.564-1.173 0-2.058.344-2.679 1.02-.62.676-.92 1.616-.92 2.82v.16a2.64 2.64 0 0 1 .644-.218c.253-.057.54-.08.874-.08h2.61v1.638H4.131c-.701 0-1.172.15-1.425.459-.253.309-.368.779-.368 1.409v4.515H.383v-8.422c0-1.593.506-2.82 1.518-3.679s2.357-1.294 4.024-1.294c.621 0 1.185.057 1.714.16a5.31 5.31 0 0 1 1.448.527l2.576-2.486 1.357 1.271-2.541 2.395h.023ZM24.208 37.627a3.79 3.79 0 0 1-.31 1.512 3.47 3.47 0 0 1-.943 1.26c-.414.356-.943.654-1.564.872-.632.217-1.357.332-2.196.332a9.519 9.519 0 0 1-1.599-.126 7.29 7.29 0 0 1-1.31-.378 5.696 5.696 0 0 1-1.127-.62 10.36 10.36 0 0 1-1.093-.904l1.254-1.272c.287.286.563.527.84.733.275.206.551.378.839.504.287.126.598.23.943.298.345.069.735.092 1.172.092 1.162 0 1.978-.218 2.45-.665.46-.447.69-.985.69-1.627 0-.699-.23-1.203-.69-1.512-.46-.31-1.012-.527-1.656-.654l-1.093-.229c-1.322-.263-2.334-.653-3.035-1.168-.702-.516-1.058-1.284-1.058-2.304 0-1.02.368-1.902 1.104-2.624.736-.721 1.84-1.077 3.323-1.077.92 0 1.725.138 2.415.413.678.275 1.38.664 2.08 1.169L22.324 30.9c-.575-.367-1.07-.665-1.507-.871-.425-.207-.989-.31-1.667-.31-.909 0-1.553.195-1.943.585-.403.39-.598.882-.598 1.478 0 .504.207.882.61 1.134.401.252 1.023.47 1.827.676l1.288.264a11.55 11.55 0 0 1 1.507.47c.471.183.885.424 1.218.722.345.297.621.653.828 1.077.207.424.31.928.31 1.524M13.803 23.967h7.566v-2.131h1.886v3.701h-9.452v-1.57ZM35.812 37.627c0 .527-.104 1.031-.31 1.512a3.47 3.47 0 0 1-.944 1.26c-.413.356-.942.654-1.563.872-.633.217-1.357.332-2.197.332a9.52 9.52 0 0 1-1.598-.126 7.29 7.29 0 0 1-1.31-.378 5.698 5.698 0 0 1-1.128-.62 10.36 10.36 0 0 1-1.092-.904l1.253-1.272c.288.286.564.527.84.733.276.206.552.378.84.504.287.126.597.23.942.298.345.069.736.092 1.173.092 1.161 0 1.978-.218 2.45-.665.46-.447.69-.985.69-1.627 0-.699-.23-1.203-.69-1.512-.46-.31-1.013-.527-1.657-.654l-1.092-.229c-1.322-.263-2.334-.653-3.036-1.168-.701-.516-1.058-1.284-1.058-2.304 0-1.02.368-1.902 1.104-2.624.736-.721 1.84-1.077 3.323-1.077.92 0 1.725.138 2.415.413.679.275 1.38.664 2.081 1.169L33.926 30.9c-.575-.367-1.07-.665-1.506-.871-.426-.207-.99-.31-1.668-.31-.908 0-1.552.195-1.943.585-.402.39-.598.882-.598 1.478 0 .504.207.882.61 1.134.402.252 1.023.47 1.828.676l1.288.264a11.55 11.55 0 0 1 1.506.47c.472.183.886.424 1.219.722.345.297.62.653.828 1.077.207.424.31.928.31 1.524M36.73 30.121a4.264 4.264 0 0 1 1.668-1.524c.69-.367 1.506-.538 2.426-.538 1.437 0 2.507.378 3.22 1.134.712.756 1.069 1.822 1.069 3.197v9.04h-1.92V32.46c0-.825-.173-1.49-.53-1.983-.356-.492-.965-.733-1.85-.733-1.162 0-2.025.424-2.576 1.272l-1.518-.882.011-.012ZM51.403 31.932c.403-.39.598-.768.598-1.111 0-.39-.115-.676-.345-.848-.23-.172-.529-.264-.873-.264-.219 0-.46.08-.725.23-.264.148-.506.32-.724.492l-1.45-.985c.886-.871 1.864-1.307 2.944-1.307.92 0 1.656.241 2.185.722.53.482.794 1.135.794 1.971 0 .435-.08.825-.23 1.18-.15.356-.414.71-.794 1.078l-1.782 1.764c-.195.195-.31.435-.334.722-.023.286-.034.47-.034.561v.791c0 .837.195 1.536.598 2.131.39.596 1.058.883 1.978.883.92 0 1.518-.241 1.897-.722.38-.481.575-1.135.575-1.96v-4.778c0-.332-.127-.619-.368-.882a3.443 3.443 0 0 0-.69-.596c-.241-.115-.414-.24-.517-.39-.104-.149.023-.4.38-.756l3.828-3.667 1.322 1.25-3.093 2.944c.207.15.449.401.725.734.276.343.425.79.425 1.363v4.847c0 1.26-.414 2.303-1.242 3.094-.828.802-1.908 1.192-3.23 1.192-.69 0-1.3-.126-1.852-.367a4.322 4.322 0 0 1-1.426-.997 4.252 4.252 0 0 1-.908-1.478 5.742 5.742 0 0 1-.345-1.788v-1.077c0-.39.046-.767.15-1.111.103-.344.264-.619.482-.814l2.116-2.028-.035-.023ZM59.66 30.121a4.265 4.265 0 0 1 1.667-1.524c.69-.367 1.507-.538 2.427-.538 1.437 0 2.506.378 3.22 1.134.712.756 1.069 1.822 1.069 3.197v9.04h-1.92V32.46c0-.825-.173-1.49-.53-1.983-.356-.492-.966-.733-1.851-.733-1.161 0-2.024.424-2.576 1.272l-1.518-.882.012-.012Z"/></svg>