<svg class="" xmlns="http://www.w3.org/2000/svg" width="15" height="15" viewBox="0 0 15 15" fill="none"><path d="M12.6194 15H2.15542C1.98544 15 1.84766 14.8601 1.84766 14.6875V9.0625C1.84766 8.88994 1.98544 8.75 2.15542 8.75H12.6194C12.7894 8.75 12.9272 8.88994 12.9272 9.0625V14.6875C12.9272 14.8601 12.7894 15 12.6194 15ZM2.46319 14.375H12.3117V9.375H2.46319V14.375Z" fill="#302782"></path><path d="M14.465 9.375H0.307765C0.137786 9.375 0 9.23506 0 9.0625V7.5C0 7.32741 0.137786 7.1875 0.307765 7.1875H14.465C14.6349 7.1875 14.7727 7.32741 14.7727 7.5V9.0625C14.7727 9.23506 14.6349 9.375 14.465 9.375ZM0.61553 8.75H14.1572V7.8125H0.61553V8.75Z" fill="#302782"></path><path d="M10.77 7.81111H3.99917C3.82919 7.81111 3.69141 7.67117 3.69141 7.49861V7.18611C3.69141 5.47086 4.83315 3.97673 6.46791 3.55267C6.54057 3.53386 6.61764 3.54261 6.68442 3.57733C6.9029 3.69098 7.13847 3.74861 7.38459 3.74861C7.63071 3.74861 7.86627 3.69098 8.08475 3.57733C8.15157 3.54258 8.22854 3.53386 8.30127 3.55267C9.93602 3.97673 11.0778 5.47086 11.0778 7.18611V7.49861C11.0778 7.67117 10.94 7.81111 10.77 7.81111ZM4.30694 7.18611H10.4622C10.4622 5.79373 9.55975 4.5763 8.25415 4.18751C7.97981 4.31108 7.68786 4.37361 7.38459 4.37361C7.08132 4.37361 6.78937 4.31108 6.51503 4.18751C5.20943 4.5763 4.30694 5.79373 4.30694 7.18611Z" fill="#302782"></path><path d="M7.38482 4.375C7.04019 4.375 6.7102 4.29425 6.40401 4.13497C5.68014 3.75844 5.23047 3.01222 5.23047 2.1875C5.23047 0.981313 6.19691 0 7.38482 0C8.57274 0 9.53918 0.981313 9.53918 2.1875C9.53918 3.01222 9.08951 3.75844 8.36564 4.13497C8.05948 4.29425 7.72946 4.375 7.38482 4.375ZM7.38482 0.625C6.53632 0.625 5.846 1.32594 5.846 2.1875C5.846 2.77656 6.16734 3.30962 6.68466 3.57872C6.90314 3.69237 7.13871 3.75 7.38482 3.75C7.63094 3.75 7.86651 3.69237 8.08499 3.57872C8.60231 3.30962 8.92365 2.77656 8.92365 2.1875C8.92365 1.32594 8.23333 0.625 7.38482 0.625Z" fill="#302782"></path><path d="M6.15637 11.25H2.15542C1.98544 11.25 1.84766 11.1101 1.84766 10.9375C1.84766 10.7649 1.98544 10.625 2.15542 10.625H6.15637C6.32635 10.625 6.46413 10.7649 6.46413 10.9375C6.46413 11.1101 6.32635 11.25 6.15637 11.25Z" fill="#302782"></path><path d="M4.61754 13.125H2.15542C1.98544 13.125 1.84766 12.9851 1.84766 12.8125C1.84766 12.6399 1.98544 12.5 2.15542 12.5H4.61754C4.78752 12.5 4.92531 12.6399 4.92531 12.8125C4.92531 12.9851 4.78752 13.125 4.61754 13.125Z" fill="#302782"></path></svg>